<?xml version="1.0" encoding="UTF-8"?>
<svg xmlns="http://www.w3.org/2000/svg" xmlns:xlink="http://www.w3.org/1999/xlink" width="150px" height="150px" viewBox="0 0 150 150" version="1.1">
<g id="surface1">
<path style=" stroke:none;fill-rule:nonzero;fill:rgb(0%,0%,0%);fill-opacity:1;" d="M 97.242188 41.484375 C 96.984375 42.09375 95.53125 49.242188 95.601562 49.5 C 95.765625 49.851562 95.882812 49.898438 96.703125 49.804688 C 97.359375 49.734375 97.476562 49.664062 97.59375 49.359375 C 97.640625 49.148438 98.0625 47.320312 98.507812 45.28125 C 99.09375 42.539062 99.257812 41.507812 99.140625 41.34375 C 99.046875 41.226562 98.671875 41.15625 98.203125 41.15625 C 97.523438 41.15625 97.382812 41.203125 97.242188 41.484375 Z M 97.242188 41.484375 "/>
<path style=" stroke:none;fill-rule:nonzero;fill:rgb(0%,0%,0%);fill-opacity:1;" d="M 100.875 42.609375 L 100.289062 43.195312 L 101.273438 44.273438 L 102.234375 45.328125 L 101.273438 46.3125 L 100.289062 47.320312 L 100.921875 47.953125 L 101.554688 48.609375 L 103.21875 47.0625 L 104.859375 45.515625 L 103.242188 43.78125 C 102.328125 42.820312 101.554688 42.046875 101.507812 42.046875 C 101.460938 42.046875 101.179688 42.304688 100.875 42.609375 Z M 100.875 42.609375 "/>
<path style=" stroke:none;fill-rule:nonzero;fill:rgb(0%,0%,0%);fill-opacity:1;" d="M 91.851562 43.875 C 91.007812 44.789062 90.328125 45.609375 90.351562 45.65625 C 90.375 45.726562 91.078125 46.453125 91.875 47.273438 L 93.351562 48.796875 L 94.007812 48.164062 L 94.640625 47.507812 L 93.75 46.546875 L 92.835938 45.5625 L 93.585938 44.695312 C 94.007812 44.226562 94.429688 43.757812 94.546875 43.640625 C 94.757812 43.476562 94.710938 43.382812 94.171875 42.820312 C 93.820312 42.46875 93.492188 42.1875 93.46875 42.1875 C 93.421875 42.1875 92.695312 42.9375 91.851562 43.875 Z M 91.851562 43.875 "/>
<path style=" stroke:none;fill-rule:nonzero;fill:rgb(0%,0%,0%);fill-opacity:1;" d="M 34.898438 66.585938 L 34.945312 84.539062 L 42.773438 84.585938 L 42.773438 72.070312 L 48.585938 72.070312 L 50.929688 75.914062 C 52.242188 78.023438 53.953125 80.835938 54.75 82.171875 L 56.226562 84.585938 L 60.492188 84.632812 C 62.835938 84.632812 64.757812 84.632812 64.757812 84.585938 C 64.757812 84.539062 61.429688 79.265625 58.078125 73.96875 C 57.421875 72.960938 56.742188 71.90625 56.578125 71.625 L 56.25 71.085938 L 57.164062 70.757812 C 60.328125 69.585938 62.648438 66.773438 63.28125 63.28125 C 63.515625 62.015625 63.46875 58.851562 63.234375 57.609375 C 62.320312 53.367188 59.273438 50.367188 54.5625 49.125 L 53.109375 48.726562 L 43.96875 48.65625 L 34.875 48.609375 Z M 52.898438 56.109375 C 54.117188 56.460938 55.171875 57.351562 55.6875 58.476562 C 56.203125 59.625 56.179688 61.570312 55.640625 62.71875 C 55.171875 63.75 54.375 64.546875 53.34375 65.015625 L 52.523438 65.414062 L 47.648438 65.4375 L 42.773438 65.484375 L 42.773438 55.804688 L 45.609375 55.78125 C 50.109375 55.710938 51.820312 55.804688 52.898438 56.109375 Z M 52.898438 56.109375 "/>
<path style=" stroke:none;fill-rule:nonzero;fill:rgb(0%,0%,0%);fill-opacity:1;" d="M 70.875 48.75 L 67.242188 48.773438 L 67.242188 84.65625 L 70.804688 84.632812 L 74.34375 84.585938 L 74.34375 72.632812 C 74.34375 66.046875 74.390625 60.703125 74.4375 60.75 C 74.507812 60.84375 80.34375 70.21875 82.382812 73.570312 C 82.710938 74.109375 83.039062 74.554688 83.085938 74.554688 C 83.15625 74.554688 83.226562 74.4375 83.273438 74.273438 C 83.320312 74.109375 83.414062 73.96875 83.460938 73.96875 C 83.53125 73.96875 83.554688 76.242188 83.53125 79.03125 L 83.484375 84.070312 L 84.234375 84.820312 L 97.523438 84.773438 C 112.289062 84.75 111.46875 84.796875 111.679688 83.765625 C 111.84375 82.992188 111.773438 52.359375 111.632812 51.9375 C 111.351562 51.1875 111.515625 51.1875 97.335938 51.257812 C 84.46875 51.351562 84.09375 51.351562 83.789062 51.632812 C 83.484375 51.914062 83.484375 51.9375 83.53125 57.585938 C 83.554688 61.804688 83.53125 63.210938 83.414062 63.09375 C 83.320312 62.976562 82.007812 60.914062 80.53125 58.453125 C 76.148438 51.234375 74.695312 48.84375 74.601562 48.773438 C 74.53125 48.726562 72.867188 48.726562 70.875 48.75 Z M 109.710938 68.039062 L 109.710938 82.757812 L 85.546875 82.757812 L 85.546875 70.804688 L 86.90625 68.695312 L 85.546875 66.539062 L 85.546875 53.320312 L 109.710938 53.320312 Z M 109.710938 68.039062 "/>
<path style=" stroke:none;fill-rule:nonzero;fill:rgb(0%,0%,0%);fill-opacity:1;" d="M 88.078125 58.242188 L 88.101562 59.203125 L 91.195312 59.226562 L 94.265625 59.25 L 94.265625 64.03125 L 91.195312 64.054688 L 88.101562 64.078125 L 88.078125 64.992188 L 88.03125 65.90625 L 94.335938 65.90625 L 94.335938 70.96875 L 88.125 70.96875 L 88.125 71.929688 L 88.101562 72.867188 L 91.242188 72.914062 L 94.335938 72.9375 L 94.335938 77.625 L 88.03125 77.625 L 88.078125 78.585938 C 88.101562 79.125 88.148438 79.546875 88.21875 79.546875 C 88.289062 79.546875 92.554688 79.546875 97.710938 79.546875 L 107.085938 79.546875 L 107.085938 77.625 L 103.125 77.625 L 103.125 72.796875 L 107.085938 72.796875 L 107.085938 70.898438 L 103.125 70.898438 L 103.148438 68.4375 L 103.195312 66 L 107.085938 66 L 107.085938 64.148438 L 103.125 64.148438 L 103.125 59.179688 L 107.085938 59.179688 L 107.085938 57.28125 L 88.03125 57.28125 Z M 101.367188 61.664062 L 101.367188 64.148438 L 96.09375 64.148438 L 96.09375 59.179688 L 101.367188 59.179688 Z M 101.34375 68.53125 L 101.367188 71.039062 L 98.8125 71.015625 L 96.257812 70.96875 L 96.1875 68.53125 C 96.164062 67.171875 96.164062 66.046875 96.210938 66 C 96.257812 65.953125 97.429688 65.929688 98.789062 65.953125 L 101.296875 66 Z M 101.25 75.210938 L 101.226562 77.554688 L 98.648438 77.601562 L 96.09375 77.625 L 96.09375 72.796875 L 98.695312 72.820312 L 101.273438 72.867188 Z M 101.25 75.210938 "/>
<path style=" stroke:none;fill-rule:nonzero;fill:rgb(0%,0%,0%);fill-opacity:1;" d="M 37.335938 92.203125 C 36.1875 92.507812 35.25 93.351562 34.6875 94.546875 C 34.242188 95.554688 34.21875 97.195312 34.664062 98.15625 C 35.578125 100.101562 37.523438 101.085938 39.5625 100.570312 C 40.40625 100.359375 41.742188 99.585938 41.742188 99.304688 C 41.742188 99.234375 41.507812 99 41.203125 98.742188 C 40.664062 98.296875 40.664062 98.296875 40.359375 98.578125 C 39.9375 98.953125 39.070312 99.304688 38.507812 99.304688 C 36.890625 99.304688 35.554688 97.265625 36.023438 95.53125 C 36.257812 94.710938 37.101562 93.796875 37.804688 93.609375 C 38.695312 93.375 39.890625 93.726562 40.335938 94.359375 C 40.546875 94.640625 40.546875 94.640625 41.226562 94.148438 L 41.929688 93.679688 L 41.273438 93.070312 C 40.804688 92.671875 40.335938 92.390625 39.75 92.25 C 38.742188 91.945312 38.273438 91.945312 37.335938 92.203125 Z M 37.335938 92.203125 "/>
<path style=" stroke:none;fill-rule:nonzero;fill:rgb(0%,0%,0%);fill-opacity:1;" d="M 73.6875 92.132812 C 72.84375 92.390625 72.070312 92.90625 71.53125 93.515625 C 69.75 95.53125 70.265625 98.835938 72.5625 100.242188 C 73.148438 100.617188 73.453125 100.6875 74.484375 100.757812 C 75.609375 100.804688 75.796875 100.78125 76.523438 100.429688 C 78.117188 99.65625 79.007812 98.109375 78.984375 96.28125 C 78.960938 94.617188 77.953125 93.023438 76.5 92.390625 C 75.773438 92.085938 74.273438 91.921875 73.6875 92.132812 Z M 76.195312 93.960938 C 78.09375 95.203125 77.53125 98.835938 75.351562 99.257812 C 73.546875 99.585938 72.070312 98.34375 72.070312 96.46875 C 72.070312 94.148438 74.367188 92.742188 76.195312 93.960938 Z M 76.195312 93.960938 "/>
<path style=" stroke:none;fill-rule:nonzero;fill:rgb(0%,0%,0%);fill-opacity:1;" d="M 114.164062 92.25 C 111.632812 93.164062 110.53125 95.835938 111.679688 98.367188 C 112.59375 100.359375 114.914062 101.296875 117.117188 100.523438 C 117.984375 100.242188 118.992188 99.28125 119.4375 98.320312 C 119.90625 97.242188 119.882812 95.53125 119.34375 94.453125 C 118.382812 92.484375 116.15625 91.546875 114.164062 92.25 Z M 116.226562 93.609375 C 117.492188 93.960938 118.335938 95.414062 118.148438 96.796875 C 117.84375 99.164062 115.21875 100.171875 113.648438 98.484375 C 113.109375 97.921875 112.921875 97.359375 112.921875 96.351562 C 112.921875 95.015625 113.53125 94.078125 114.65625 93.65625 C 115.335938 93.421875 115.5 93.421875 116.226562 93.609375 Z M 116.226562 93.609375 "/>
<path style=" stroke:none;fill-rule:nonzero;fill:rgb(0%,0%,0%);fill-opacity:1;" d="M 123.257812 92.203125 C 122.4375 92.507812 121.640625 93.398438 121.5 94.148438 C 121.429688 94.640625 121.476562 94.921875 121.710938 95.414062 C 122.085938 96.1875 122.90625 96.65625 124.476562 97.054688 C 126.1875 97.453125 126.726562 98.132812 125.90625 98.953125 C 125.601562 99.257812 125.414062 99.304688 124.710938 99.304688 C 123.84375 99.304688 122.789062 98.953125 122.320312 98.507812 C 122.109375 98.320312 122.015625 98.367188 121.523438 98.859375 L 120.960938 99.421875 L 121.640625 99.890625 C 122.578125 100.523438 123.375 100.78125 124.523438 100.78125 C 126.140625 100.78125 127.125 100.289062 127.59375 99.257812 C 128.390625 97.546875 127.523438 96.328125 125.015625 95.578125 C 123.140625 95.015625 122.648438 94.476562 123.375 93.773438 C 123.960938 93.257812 125.34375 93.398438 126.304688 94.078125 L 126.75 94.382812 L 127.242188 93.867188 L 127.757812 93.328125 L 127.125 92.90625 C 125.929688 92.085938 124.40625 91.804688 123.257812 92.203125 Z M 123.257812 92.203125 "/>
<path style=" stroke:none;fill-rule:nonzero;fill:rgb(0%,0%,0%);fill-opacity:1;" d="M 21.984375 96.375 L 21.984375 100.640625 L 23.507812 100.640625 L 23.507812 97.640625 L 25.078125 97.640625 L 25.992188 99.117188 L 26.882812 100.617188 L 27.820312 100.640625 L 28.734375 100.640625 L 28.523438 100.289062 C 27.609375 98.882812 26.789062 97.546875 26.8125 97.523438 C 28.429688 96.445312 28.921875 95.203125 28.289062 93.820312 C 27.679688 92.507812 27.09375 92.25 24.210938 92.15625 L 21.984375 92.109375 Z M 26.601562 94.078125 C 27.09375 94.664062 27.046875 95.273438 26.53125 95.8125 C 26.085938 96.257812 25.992188 96.28125 24.46875 96.257812 L 23.507812 96.257812 L 23.460938 94.921875 L 23.414062 93.5625 L 24.820312 93.632812 C 26.179688 93.679688 26.273438 93.703125 26.601562 94.078125 Z M 26.601562 94.078125 "/>
<path style=" stroke:none;fill-rule:nonzero;fill:rgb(0%,0%,0%);fill-opacity:1;" d="M 30.773438 96.375 L 30.773438 100.640625 L 32.367188 100.640625 L 32.367188 92.132812 L 30.773438 92.132812 Z M 30.773438 96.375 "/>
<path style=" stroke:none;fill-rule:nonzero;fill:rgb(0%,0%,0%);fill-opacity:1;" d="M 44.765625 95.671875 C 43.96875 97.617188 43.21875 99.539062 43.054688 99.9375 L 42.773438 100.640625 L 43.664062 100.59375 L 44.554688 100.570312 L 44.929688 99.632812 L 45.304688 98.71875 L 48.726562 98.71875 L 49.429688 100.640625 L 50.367188 100.640625 C 51.1875 100.640625 51.28125 100.59375 51.164062 100.359375 C 51.070312 100.242188 50.320312 98.320312 49.453125 96.117188 L 47.882812 92.132812 L 46.195312 92.132812 Z M 47.625 95.765625 L 48.140625 97.195312 L 47.0625 97.242188 C 46.453125 97.265625 45.9375 97.242188 45.914062 97.21875 C 45.84375 97.171875 46.921875 94.335938 47.015625 94.335938 C 47.0625 94.335938 47.320312 94.96875 47.625 95.765625 Z M 47.625 95.765625 "/>
<path style=" stroke:none;fill-rule:nonzero;fill:rgb(0%,0%,0%);fill-opacity:1;" d="M 52.875 96.375 L 52.875 100.640625 L 54.421875 100.640625 L 54.421875 97.640625 L 55.921875 97.546875 L 56.859375 99.070312 L 57.796875 100.640625 L 58.710938 100.640625 C 59.414062 100.640625 59.601562 100.59375 59.53125 100.453125 C 59.460938 100.359375 59.015625 99.632812 58.5 98.859375 L 57.609375 97.476562 L 58.148438 97.171875 C 59.625 96.375 59.859375 94.265625 58.617188 93 C 57.9375 92.320312 57.117188 92.132812 54.703125 92.132812 L 52.875 92.132812 Z M 57.140625 93.867188 C 58.03125 94.3125 58.101562 95.367188 57.28125 95.953125 C 57 96.164062 56.601562 96.234375 55.664062 96.257812 L 54.421875 96.28125 L 54.328125 93.609375 L 55.476562 93.609375 C 56.273438 93.609375 56.789062 93.679688 57.140625 93.867188 Z M 57.140625 93.867188 "/>
<path style=" stroke:none;fill-rule:nonzero;fill:rgb(0%,0%,0%);fill-opacity:1;" d="M 61.523438 96.375 L 61.523438 100.664062 L 63.773438 100.59375 C 65.835938 100.570312 66.046875 100.523438 66.75 100.171875 C 69.234375 98.859375 69.796875 95.34375 67.828125 93.445312 C 66.84375 92.484375 66.117188 92.273438 63.609375 92.179688 L 61.523438 92.085938 Z M 65.671875 93.796875 C 66.398438 94.078125 66.773438 94.429688 67.101562 95.132812 C 67.570312 96.117188 67.429688 97.382812 66.773438 98.296875 C 66.351562 98.90625 65.625 99.1875 64.3125 99.210938 L 63.140625 99.234375 L 63.140625 93.609375 L 64.125 93.609375 C 64.664062 93.609375 65.367188 93.703125 65.671875 93.796875 Z M 65.671875 93.796875 "/>
<path style=" stroke:none;fill-rule:nonzero;fill:rgb(0%,0%,0%);fill-opacity:1;" d="M 84.515625 96.375 L 84.515625 100.640625 L 86.15625 100.640625 L 86.109375 97.78125 C 86.085938 96.210938 86.085938 94.921875 86.085938 94.921875 C 86.109375 94.921875 86.484375 95.625 86.953125 96.492188 C 87.398438 97.359375 87.984375 98.414062 88.21875 98.835938 L 88.664062 99.632812 L 89.953125 97.242188 L 91.265625 94.851562 L 91.265625 100.640625 L 92.789062 100.640625 L 92.765625 96.375 L 92.71875 92.132812 L 91.125 92.132812 L 89.90625 94.5 L 88.664062 96.84375 L 87.445312 94.5 L 86.203125 92.132812 L 84.515625 92.132812 Z M 84.515625 96.375 "/>
<path style=" stroke:none;fill-rule:nonzero;fill:rgb(0%,0%,0%);fill-opacity:1;" d="M 96.234375 96.375 L 94.546875 100.640625 L 96.304688 100.640625 L 97.007812 98.71875 L 100.453125 98.71875 L 100.828125 99.632812 L 101.203125 100.570312 L 102.09375 100.59375 C 102.914062 100.640625 102.984375 100.640625 102.867188 100.382812 C 102.796875 100.242188 102.023438 98.320312 101.15625 96.117188 L 99.585938 92.132812 L 97.921875 92.132812 Z M 99.351562 95.765625 C 99.65625 96.539062 99.867188 97.195312 99.84375 97.21875 C 99.820312 97.242188 99.304688 97.265625 98.695312 97.242188 L 97.617188 97.195312 L 98.132812 95.765625 C 98.414062 94.96875 98.695312 94.335938 98.742188 94.335938 C 98.765625 94.335938 99.046875 94.96875 99.351562 95.765625 Z M 99.351562 95.765625 "/>
<path style=" stroke:none;fill-rule:nonzero;fill:rgb(0%,0%,0%);fill-opacity:1;" d="M 103.007812 92.835938 L 103.054688 93.539062 L 105.914062 93.679688 L 105.914062 100.640625 L 107.53125 100.640625 L 107.53125 93.609375 L 110.460938 93.609375 L 110.460938 92.132812 L 102.960938 92.132812 Z M 103.007812 92.835938 "/>
</g>
</svg>
