<?xml version="1.0" encoding="UTF-8"?>
<svg xmlns="http://www.w3.org/2000/svg" xmlns:xlink="http://www.w3.org/1999/xlink" width="100px" height="100px" viewBox="0 0 100 100" version="1.1">
<g id="surface1">
<path style=" stroke:none;fill-rule:nonzero;fill:rgb(0%,0%,0%);fill-opacity:1;" d="M 64.828125 27.65625 C 64.65625 28.0625 63.6875 32.828125 63.734375 33 C 63.84375 33.234375 63.921875 33.265625 64.46875 33.203125 C 64.90625 33.15625 64.984375 33.109375 65.0625 32.90625 C 65.09375 32.765625 65.375 31.546875 65.671875 30.1875 C 66.0625 28.359375 66.171875 27.671875 66.09375 27.5625 C 66.03125 27.484375 65.78125 27.4375 65.46875 27.4375 C 65.015625 27.4375 64.921875 27.46875 64.828125 27.65625 Z M 64.828125 27.65625 "/>
<path style=" stroke:none;fill-rule:nonzero;fill:rgb(0%,0%,0%);fill-opacity:1;" d="M 67.25 28.40625 L 66.859375 28.796875 L 67.515625 29.515625 L 68.15625 30.21875 L 67.515625 30.875 L 66.859375 31.546875 L 67.28125 31.96875 L 67.703125 32.40625 L 68.8125 31.375 L 69.90625 30.34375 L 68.828125 29.1875 C 68.21875 28.546875 67.703125 28.03125 67.671875 28.03125 C 67.640625 28.03125 67.453125 28.203125 67.25 28.40625 Z M 67.25 28.40625 "/>
<path style=" stroke:none;fill-rule:nonzero;fill:rgb(0%,0%,0%);fill-opacity:1;" d="M 61.234375 29.25 C 60.671875 29.859375 60.21875 30.40625 60.234375 30.4375 C 60.25 30.484375 60.71875 30.96875 61.25 31.515625 L 62.234375 32.53125 L 62.671875 32.109375 L 63.09375 31.671875 L 62.5 31.03125 L 61.890625 30.375 L 62.390625 29.796875 C 62.671875 29.484375 62.953125 29.171875 63.03125 29.09375 C 63.171875 28.984375 63.140625 28.921875 62.78125 28.546875 C 62.546875 28.3125 62.328125 28.125 62.3125 28.125 C 62.28125 28.125 61.796875 28.625 61.234375 29.25 Z M 61.234375 29.25 "/>
<path style=" stroke:none;fill-rule:nonzero;fill:rgb(0%,0%,0%);fill-opacity:1;" d="M 23.265625 44.390625 L 23.296875 56.359375 L 28.515625 56.390625 L 28.515625 48.046875 L 32.390625 48.046875 L 33.953125 50.609375 C 34.828125 52.015625 35.96875 53.890625 36.5 54.78125 L 37.484375 56.390625 L 40.328125 56.421875 C 41.890625 56.421875 43.171875 56.421875 43.171875 56.390625 C 43.171875 56.359375 40.953125 52.84375 38.71875 49.3125 C 38.28125 48.640625 37.828125 47.9375 37.71875 47.75 L 37.5 47.390625 L 38.109375 47.171875 C 40.21875 46.390625 41.765625 44.515625 42.1875 42.1875 C 42.34375 41.34375 42.3125 39.234375 42.15625 38.40625 C 41.546875 35.578125 39.515625 33.578125 36.375 32.75 L 35.40625 32.484375 L 29.3125 32.4375 L 23.25 32.40625 Z M 35.265625 37.40625 C 36.078125 37.640625 36.78125 38.234375 37.125 38.984375 C 37.46875 39.75 37.453125 41.046875 37.09375 41.8125 C 36.78125 42.5 36.25 43.03125 35.5625 43.34375 L 35.015625 43.609375 L 31.765625 43.625 L 28.515625 43.65625 L 28.515625 37.203125 L 30.40625 37.1875 C 33.40625 37.140625 34.546875 37.203125 35.265625 37.40625 Z M 35.265625 37.40625 "/>
<path style=" stroke:none;fill-rule:nonzero;fill:rgb(0%,0%,0%);fill-opacity:1;" d="M 47.25 32.5 L 44.828125 32.515625 L 44.828125 56.4375 L 47.203125 56.421875 L 49.5625 56.390625 L 49.5625 48.421875 C 49.5625 44.03125 49.59375 40.46875 49.625 40.5 C 49.671875 40.5625 53.5625 46.8125 54.921875 49.046875 C 55.140625 49.40625 55.359375 49.703125 55.390625 49.703125 C 55.4375 49.703125 55.484375 49.625 55.515625 49.515625 C 55.546875 49.40625 55.609375 49.3125 55.640625 49.3125 C 55.6875 49.3125 55.703125 50.828125 55.6875 52.6875 L 55.65625 56.046875 L 56.15625 56.546875 L 65.015625 56.515625 C 74.859375 56.5 74.3125 56.53125 74.453125 55.84375 C 74.5625 55.328125 74.515625 34.90625 74.421875 34.625 C 74.234375 34.125 74.34375 34.125 64.890625 34.171875 C 56.3125 34.234375 56.0625 34.234375 55.859375 34.421875 C 55.65625 34.609375 55.65625 34.625 55.6875 38.390625 C 55.703125 41.203125 55.6875 42.140625 55.609375 42.0625 C 55.546875 41.984375 54.671875 40.609375 53.6875 38.96875 C 50.765625 34.15625 49.796875 32.5625 49.734375 32.515625 C 49.6875 32.484375 48.578125 32.484375 47.25 32.5 Z M 73.140625 45.359375 L 73.140625 55.171875 L 57.03125 55.171875 L 57.03125 47.203125 L 57.9375 45.796875 L 57.03125 44.359375 L 57.03125 35.546875 L 73.140625 35.546875 Z M 73.140625 45.359375 "/>
<path style=" stroke:none;fill-rule:nonzero;fill:rgb(0%,0%,0%);fill-opacity:1;" d="M 58.71875 38.828125 L 58.734375 39.46875 L 60.796875 39.484375 L 62.84375 39.5 L 62.84375 42.6875 L 60.796875 42.703125 L 58.734375 42.71875 L 58.71875 43.328125 L 58.6875 43.9375 L 62.890625 43.9375 L 62.890625 47.3125 L 58.75 47.3125 L 58.75 47.953125 L 58.734375 48.578125 L 60.828125 48.609375 L 62.890625 48.625 L 62.890625 51.75 L 58.6875 51.75 L 58.71875 52.390625 C 58.734375 52.75 58.765625 53.03125 58.8125 53.03125 C 58.859375 53.03125 61.703125 53.03125 65.140625 53.03125 L 71.390625 53.03125 L 71.390625 51.75 L 68.75 51.75 L 68.75 48.53125 L 71.390625 48.53125 L 71.390625 47.265625 L 68.75 47.265625 L 68.765625 45.625 L 68.796875 44 L 71.390625 44 L 71.390625 42.765625 L 68.75 42.765625 L 68.75 39.453125 L 71.390625 39.453125 L 71.390625 38.1875 L 58.6875 38.1875 Z M 67.578125 41.109375 L 67.578125 42.765625 L 64.0625 42.765625 L 64.0625 39.453125 L 67.578125 39.453125 Z M 67.5625 45.6875 L 67.578125 47.359375 L 65.875 47.34375 L 64.171875 47.3125 L 64.125 45.6875 C 64.109375 44.78125 64.109375 44.03125 64.140625 44 C 64.171875 43.96875 64.953125 43.953125 65.859375 43.96875 L 67.53125 44 Z M 67.5 50.140625 L 67.484375 51.703125 L 65.765625 51.734375 L 64.0625 51.75 L 64.0625 48.53125 L 65.796875 48.546875 L 67.515625 48.578125 Z M 67.5 50.140625 "/>
<path style=" stroke:none;fill-rule:nonzero;fill:rgb(0%,0%,0%);fill-opacity:1;" d="M 24.890625 61.46875 C 24.125 61.671875 23.5 62.234375 23.125 63.03125 C 22.828125 63.703125 22.8125 64.796875 23.109375 65.4375 C 23.71875 66.734375 25.015625 67.390625 26.375 67.046875 C 26.9375 66.90625 27.828125 66.390625 27.828125 66.203125 C 27.828125 66.15625 27.671875 66 27.46875 65.828125 C 27.109375 65.53125 27.109375 65.53125 26.90625 65.71875 C 26.625 65.96875 26.046875 66.203125 25.671875 66.203125 C 24.59375 66.203125 23.703125 64.84375 24.015625 63.6875 C 24.171875 63.140625 24.734375 62.53125 25.203125 62.40625 C 25.796875 62.25 26.59375 62.484375 26.890625 62.90625 C 27.03125 63.09375 27.03125 63.09375 27.484375 62.765625 L 27.953125 62.453125 L 27.515625 62.046875 C 27.203125 61.78125 26.890625 61.59375 26.5 61.5 C 25.828125 61.296875 25.515625 61.296875 24.890625 61.46875 Z M 24.890625 61.46875 "/>
<path style=" stroke:none;fill-rule:nonzero;fill:rgb(0%,0%,0%);fill-opacity:1;" d="M 49.125 61.421875 C 48.5625 61.59375 48.046875 61.9375 47.6875 62.34375 C 46.5 63.6875 46.84375 65.890625 48.375 66.828125 C 48.765625 67.078125 48.96875 67.125 49.65625 67.171875 C 50.40625 67.203125 50.53125 67.1875 51.015625 66.953125 C 52.078125 66.4375 52.671875 65.40625 52.65625 64.1875 C 52.640625 63.078125 51.96875 62.015625 51 61.59375 C 50.515625 61.390625 49.515625 61.28125 49.125 61.421875 Z M 50.796875 62.640625 C 52.0625 63.46875 51.6875 65.890625 50.234375 66.171875 C 49.03125 66.390625 48.046875 65.5625 48.046875 64.3125 C 48.046875 62.765625 49.578125 61.828125 50.796875 62.640625 Z M 50.796875 62.640625 "/>
<path style=" stroke:none;fill-rule:nonzero;fill:rgb(0%,0%,0%);fill-opacity:1;" d="M 76.109375 61.5 C 74.421875 62.109375 73.6875 63.890625 74.453125 65.578125 C 75.0625 66.90625 76.609375 67.53125 78.078125 67.015625 C 78.65625 66.828125 79.328125 66.1875 79.625 65.546875 C 79.9375 64.828125 79.921875 63.6875 79.5625 62.96875 C 78.921875 61.65625 77.4375 61.03125 76.109375 61.5 Z M 77.484375 62.40625 C 78.328125 62.640625 78.890625 63.609375 78.765625 64.53125 C 78.5625 66.109375 76.8125 66.78125 75.765625 65.65625 C 75.40625 65.28125 75.28125 64.90625 75.28125 64.234375 C 75.28125 63.34375 75.6875 62.71875 76.4375 62.4375 C 76.890625 62.28125 77 62.28125 77.484375 62.40625 Z M 77.484375 62.40625 "/>
<path style=" stroke:none;fill-rule:nonzero;fill:rgb(0%,0%,0%);fill-opacity:1;" d="M 82.171875 61.46875 C 81.625 61.671875 81.09375 62.265625 81 62.765625 C 80.953125 63.09375 80.984375 63.28125 81.140625 63.609375 C 81.390625 64.125 81.9375 64.4375 82.984375 64.703125 C 84.125 64.96875 84.484375 65.421875 83.9375 65.96875 C 83.734375 66.171875 83.609375 66.203125 83.140625 66.203125 C 82.5625 66.203125 81.859375 65.96875 81.546875 65.671875 C 81.40625 65.546875 81.34375 65.578125 81.015625 65.90625 L 80.640625 66.28125 L 81.09375 66.59375 C 81.71875 67.015625 82.25 67.1875 83.015625 67.1875 C 84.09375 67.1875 84.75 66.859375 85.0625 66.171875 C 85.59375 65.03125 85.015625 64.21875 83.34375 63.71875 C 82.09375 63.34375 81.765625 62.984375 82.25 62.515625 C 82.640625 62.171875 83.5625 62.265625 84.203125 62.71875 L 84.5 62.921875 L 84.828125 62.578125 L 85.171875 62.21875 L 84.75 61.9375 C 83.953125 61.390625 82.9375 61.203125 82.171875 61.46875 Z M 82.171875 61.46875 "/>
<path style=" stroke:none;fill-rule:nonzero;fill:rgb(0%,0%,0%);fill-opacity:1;" d="M 14.65625 64.25 L 14.65625 67.09375 L 15.671875 67.09375 L 15.671875 65.09375 L 16.71875 65.09375 L 17.328125 66.078125 L 17.921875 67.078125 L 18.546875 67.09375 L 19.15625 67.09375 L 19.015625 66.859375 C 18.40625 65.921875 17.859375 65.03125 17.875 65.015625 C 18.953125 64.296875 19.28125 63.46875 18.859375 62.546875 C 18.453125 61.671875 18.0625 61.5 16.140625 61.4375 L 14.65625 61.40625 Z M 17.734375 62.71875 C 18.0625 63.109375 18.03125 63.515625 17.6875 63.875 C 17.390625 64.171875 17.328125 64.1875 16.3125 64.171875 L 15.671875 64.171875 L 15.640625 63.28125 L 15.609375 62.375 L 16.546875 62.421875 C 17.453125 62.453125 17.515625 62.46875 17.734375 62.71875 Z M 17.734375 62.71875 "/>
<path style=" stroke:none;fill-rule:nonzero;fill:rgb(0%,0%,0%);fill-opacity:1;" d="M 20.515625 64.25 L 20.515625 67.09375 L 21.578125 67.09375 L 21.578125 61.421875 L 20.515625 61.421875 Z M 20.515625 64.25 "/>
<path style=" stroke:none;fill-rule:nonzero;fill:rgb(0%,0%,0%);fill-opacity:1;" d="M 29.84375 63.78125 C 29.3125 65.078125 28.8125 66.359375 28.703125 66.625 L 28.515625 67.09375 L 29.109375 67.0625 L 29.703125 67.046875 L 29.953125 66.421875 L 30.203125 65.8125 L 32.484375 65.8125 L 32.953125 67.09375 L 33.578125 67.09375 C 34.125 67.09375 34.1875 67.0625 34.109375 66.90625 C 34.046875 66.828125 33.546875 65.546875 32.96875 64.078125 L 31.921875 61.421875 L 30.796875 61.421875 Z M 31.75 63.84375 L 32.09375 64.796875 L 31.375 64.828125 C 30.96875 64.84375 30.625 64.828125 30.609375 64.8125 C 30.5625 64.78125 31.28125 62.890625 31.34375 62.890625 C 31.375 62.890625 31.546875 63.3125 31.75 63.84375 Z M 31.75 63.84375 "/>
<path style=" stroke:none;fill-rule:nonzero;fill:rgb(0%,0%,0%);fill-opacity:1;" d="M 35.25 64.25 L 35.25 67.09375 L 36.28125 67.09375 L 36.28125 65.09375 L 37.28125 65.03125 L 37.90625 66.046875 L 38.53125 67.09375 L 39.140625 67.09375 C 39.609375 67.09375 39.734375 67.0625 39.6875 66.96875 C 39.640625 66.90625 39.34375 66.421875 39 65.90625 L 38.40625 64.984375 L 38.765625 64.78125 C 39.75 64.25 39.90625 62.84375 39.078125 62 C 38.625 61.546875 38.078125 61.421875 36.46875 61.421875 L 35.25 61.421875 Z M 38.09375 62.578125 C 38.6875 62.875 38.734375 63.578125 38.1875 63.96875 C 38 64.109375 37.734375 64.15625 37.109375 64.171875 L 36.28125 64.1875 L 36.21875 62.40625 L 36.984375 62.40625 C 37.515625 62.40625 37.859375 62.453125 38.09375 62.578125 Z M 38.09375 62.578125 "/>
<path style=" stroke:none;fill-rule:nonzero;fill:rgb(0%,0%,0%);fill-opacity:1;" d="M 41.015625 64.25 L 41.015625 67.109375 L 42.515625 67.0625 C 43.890625 67.046875 44.03125 67.015625 44.5 66.78125 C 46.15625 65.90625 46.53125 63.5625 45.21875 62.296875 C 44.5625 61.65625 44.078125 61.515625 42.40625 61.453125 L 41.015625 61.390625 Z M 43.78125 62.53125 C 44.265625 62.71875 44.515625 62.953125 44.734375 63.421875 C 45.046875 64.078125 44.953125 64.921875 44.515625 65.53125 C 44.234375 65.9375 43.75 66.125 42.875 66.140625 L 42.09375 66.15625 L 42.09375 62.40625 L 42.75 62.40625 C 43.109375 62.40625 43.578125 62.46875 43.78125 62.53125 Z M 43.78125 62.53125 "/>
<path style=" stroke:none;fill-rule:nonzero;fill:rgb(0%,0%,0%);fill-opacity:1;" d="M 56.34375 64.25 L 56.34375 67.09375 L 57.4375 67.09375 L 57.40625 65.1875 C 57.390625 64.140625 57.390625 63.28125 57.390625 63.28125 C 57.40625 63.28125 57.65625 63.75 57.96875 64.328125 C 58.265625 64.90625 58.65625 65.609375 58.8125 65.890625 L 59.109375 66.421875 L 59.96875 64.828125 L 60.84375 63.234375 L 60.84375 67.09375 L 61.859375 67.09375 L 61.84375 64.25 L 61.8125 61.421875 L 60.75 61.421875 L 59.9375 63 L 59.109375 64.5625 L 58.296875 63 L 57.46875 61.421875 L 56.34375 61.421875 Z M 56.34375 64.25 "/>
<path style=" stroke:none;fill-rule:nonzero;fill:rgb(0%,0%,0%);fill-opacity:1;" d="M 64.15625 64.25 L 63.03125 67.09375 L 64.203125 67.09375 L 64.671875 65.8125 L 66.96875 65.8125 L 67.21875 66.421875 L 67.46875 67.046875 L 68.0625 67.0625 C 68.609375 67.09375 68.65625 67.09375 68.578125 66.921875 C 68.53125 66.828125 68.015625 65.546875 67.4375 64.078125 L 66.390625 61.421875 L 65.28125 61.421875 Z M 66.234375 63.84375 C 66.4375 64.359375 66.578125 64.796875 66.5625 64.8125 C 66.546875 64.828125 66.203125 64.84375 65.796875 64.828125 L 65.078125 64.796875 L 65.421875 63.84375 C 65.609375 63.3125 65.796875 62.890625 65.828125 62.890625 C 65.84375 62.890625 66.03125 63.3125 66.234375 63.84375 Z M 66.234375 63.84375 "/>
<path style=" stroke:none;fill-rule:nonzero;fill:rgb(0%,0%,0%);fill-opacity:1;" d="M 68.671875 61.890625 L 68.703125 62.359375 L 70.609375 62.453125 L 70.609375 67.09375 L 71.6875 67.09375 L 71.6875 62.40625 L 73.640625 62.40625 L 73.640625 61.421875 L 68.640625 61.421875 Z M 68.671875 61.890625 "/>
</g>
</svg>
