<?xml version="1.0" encoding="UTF-8"?>
<svg xmlns="http://www.w3.org/2000/svg" xmlns:xlink="http://www.w3.org/1999/xlink" width="200px" height="200px" viewBox="0 0 200 200" version="1.1">
<g id="surface1">
<path style=" stroke:none;fill-rule:nonzero;fill:rgb(0%,0%,0%);fill-opacity:1;" d="M 129.65625 55.3125 C 129.3125 56.125 127.375 65.65625 127.46875 66 C 127.6875 66.46875 127.84375 66.53125 128.9375 66.40625 C 129.8125 66.3125 129.96875 66.21875 130.125 65.8125 C 130.1875 65.53125 130.75 63.09375 131.34375 60.375 C 132.125 56.71875 132.34375 55.34375 132.1875 55.125 C 132.0625 54.96875 131.5625 54.875 130.9375 54.875 C 130.03125 54.875 129.84375 54.9375 129.65625 55.3125 Z M 129.65625 55.3125 "/>
<path style=" stroke:none;fill-rule:nonzero;fill:rgb(0%,0%,0%);fill-opacity:1;" d="M 134.5 56.8125 L 133.71875 57.59375 L 135.03125 59.03125 L 136.3125 60.4375 L 135.03125 61.75 L 133.71875 63.09375 L 134.5625 63.9375 L 135.40625 64.8125 L 137.625 62.75 L 139.8125 60.6875 L 137.65625 58.375 C 136.4375 57.09375 135.40625 56.0625 135.34375 56.0625 C 135.28125 56.0625 134.90625 56.40625 134.5 56.8125 Z M 134.5 56.8125 "/>
<path style=" stroke:none;fill-rule:nonzero;fill:rgb(0%,0%,0%);fill-opacity:1;" d="M 122.46875 58.5 C 121.34375 59.71875 120.4375 60.8125 120.46875 60.875 C 120.5 60.96875 121.4375 61.9375 122.5 63.03125 L 124.46875 65.0625 L 125.34375 64.21875 L 126.1875 63.34375 L 125 62.0625 L 123.78125 60.75 L 124.78125 59.59375 C 125.34375 58.96875 125.90625 58.34375 126.0625 58.1875 C 126.34375 57.96875 126.28125 57.84375 125.5625 57.09375 C 125.09375 56.625 124.65625 56.25 124.625 56.25 C 124.5625 56.25 123.59375 57.25 122.46875 58.5 Z M 122.46875 58.5 "/>
<path style=" stroke:none;fill-rule:nonzero;fill:rgb(0%,0%,0%);fill-opacity:1;" d="M 46.53125 88.78125 L 46.59375 112.71875 L 57.03125 112.78125 L 57.03125 96.09375 L 64.78125 96.09375 L 67.90625 101.21875 C 69.65625 104.03125 71.9375 107.78125 73 109.5625 L 74.96875 112.78125 L 80.65625 112.84375 C 83.78125 112.84375 86.34375 112.84375 86.34375 112.78125 C 86.34375 112.71875 81.90625 105.6875 77.4375 98.625 C 76.5625 97.28125 75.65625 95.875 75.4375 95.5 L 75 94.78125 L 76.21875 94.34375 C 80.4375 92.78125 83.53125 89.03125 84.375 84.375 C 84.6875 82.6875 84.625 78.46875 84.3125 76.8125 C 83.09375 71.15625 79.03125 67.15625 72.75 65.5 L 70.8125 64.96875 L 58.625 64.875 L 46.5 64.8125 Z M 70.53125 74.8125 C 72.15625 75.28125 73.5625 76.46875 74.25 77.96875 C 74.9375 79.5 74.90625 82.09375 74.1875 83.625 C 73.5625 85 72.5 86.0625 71.125 86.6875 L 70.03125 87.21875 L 63.53125 87.25 L 57.03125 87.3125 L 57.03125 74.40625 L 60.8125 74.375 C 66.8125 74.28125 69.09375 74.40625 70.53125 74.8125 Z M 70.53125 74.8125 "/>
<path style=" stroke:none;fill-rule:nonzero;fill:rgb(0%,0%,0%);fill-opacity:1;" d="M 94.5 65 L 89.65625 65.03125 L 89.65625 112.875 L 94.40625 112.84375 L 99.125 112.78125 L 99.125 96.84375 C 99.125 88.0625 99.1875 80.9375 99.25 81 C 99.34375 81.125 107.125 93.625 109.84375 98.09375 C 110.28125 98.8125 110.71875 99.40625 110.78125 99.40625 C 110.875 99.40625 110.96875 99.25 111.03125 99.03125 C 111.09375 98.8125 111.21875 98.625 111.28125 98.625 C 111.375 98.625 111.40625 101.65625 111.375 105.375 L 111.3125 112.09375 L 112.3125 113.09375 L 130.03125 113.03125 C 149.71875 113 148.625 113.0625 148.90625 111.6875 C 149.125 110.65625 149.03125 69.8125 148.84375 69.25 C 148.46875 68.25 148.6875 68.25 129.78125 68.34375 C 112.625 68.46875 112.125 68.46875 111.71875 68.84375 C 111.3125 69.21875 111.3125 69.25 111.375 76.78125 C 111.40625 82.40625 111.375 84.28125 111.21875 84.125 C 111.09375 83.96875 109.34375 81.21875 107.375 77.9375 C 101.53125 68.3125 99.59375 65.125 99.46875 65.03125 C 99.375 64.96875 97.15625 64.96875 94.5 65 Z M 146.28125 90.71875 L 146.28125 110.34375 L 114.0625 110.34375 L 114.0625 94.40625 L 115.875 91.59375 L 114.0625 88.71875 L 114.0625 71.09375 L 146.28125 71.09375 Z M 146.28125 90.71875 "/>
<path style=" stroke:none;fill-rule:nonzero;fill:rgb(0%,0%,0%);fill-opacity:1;" d="M 117.4375 77.65625 L 117.46875 78.9375 L 121.59375 78.96875 L 125.6875 79 L 125.6875 85.375 L 121.59375 85.40625 L 117.46875 85.4375 L 117.4375 86.65625 L 117.375 87.875 L 125.78125 87.875 L 125.78125 94.625 L 117.5 94.625 L 117.5 95.90625 L 117.46875 97.15625 L 121.65625 97.21875 L 125.78125 97.25 L 125.78125 103.5 L 117.375 103.5 L 117.4375 104.78125 C 117.46875 105.5 117.53125 106.0625 117.625 106.0625 C 117.71875 106.0625 123.40625 106.0625 130.28125 106.0625 L 142.78125 106.0625 L 142.78125 103.5 L 137.5 103.5 L 137.5 97.0625 L 142.78125 97.0625 L 142.78125 94.53125 L 137.5 94.53125 L 137.53125 91.25 L 137.59375 88 L 142.78125 88 L 142.78125 85.53125 L 137.5 85.53125 L 137.5 78.90625 L 142.78125 78.90625 L 142.78125 76.375 L 117.375 76.375 Z M 135.15625 82.21875 L 135.15625 85.53125 L 128.125 85.53125 L 128.125 78.90625 L 135.15625 78.90625 Z M 135.125 91.375 L 135.15625 94.71875 L 131.75 94.6875 L 128.34375 94.625 L 128.25 91.375 C 128.21875 89.5625 128.21875 88.0625 128.28125 88 C 128.34375 87.9375 129.90625 87.90625 131.71875 87.9375 L 135.0625 88 Z M 135 100.28125 L 134.96875 103.40625 L 131.53125 103.46875 L 128.125 103.5 L 128.125 97.0625 L 131.59375 97.09375 L 135.03125 97.15625 Z M 135 100.28125 "/>
<path style=" stroke:none;fill-rule:nonzero;fill:rgb(0%,0%,0%);fill-opacity:1;" d="M 49.78125 122.9375 C 48.25 123.34375 47 124.46875 46.25 126.0625 C 45.65625 127.40625 45.625 129.59375 46.21875 130.875 C 47.4375 133.46875 50.03125 134.78125 52.75 134.09375 C 53.875 133.8125 55.65625 132.78125 55.65625 132.40625 C 55.65625 132.3125 55.34375 132 54.9375 131.65625 C 54.21875 131.0625 54.21875 131.0625 53.8125 131.4375 C 53.25 131.9375 52.09375 132.40625 51.34375 132.40625 C 49.1875 132.40625 47.40625 129.6875 48.03125 127.375 C 48.34375 126.28125 49.46875 125.0625 50.40625 124.8125 C 51.59375 124.5 53.1875 124.96875 53.78125 125.8125 C 54.0625 126.1875 54.0625 126.1875 54.96875 125.53125 L 55.90625 124.90625 L 55.03125 124.09375 C 54.40625 123.5625 53.78125 123.1875 53 123 C 51.65625 122.59375 51.03125 122.59375 49.78125 122.9375 Z M 49.78125 122.9375 "/>
<path style=" stroke:none;fill-rule:nonzero;fill:rgb(0%,0%,0%);fill-opacity:1;" d="M 98.25 122.84375 C 97.125 123.1875 96.09375 123.875 95.375 124.6875 C 93 127.375 93.6875 131.78125 96.75 133.65625 C 97.53125 134.15625 97.9375 134.25 99.3125 134.34375 C 100.8125 134.40625 101.0625 134.375 102.03125 133.90625 C 104.15625 132.875 105.34375 130.8125 105.3125 128.375 C 105.28125 126.15625 103.9375 124.03125 102 123.1875 C 101.03125 122.78125 99.03125 122.5625 98.25 122.84375 Z M 101.59375 125.28125 C 104.125 126.9375 103.375 131.78125 100.46875 132.34375 C 98.0625 132.78125 96.09375 131.125 96.09375 128.625 C 96.09375 125.53125 99.15625 123.65625 101.59375 125.28125 Z M 101.59375 125.28125 "/>
<path style=" stroke:none;fill-rule:nonzero;fill:rgb(0%,0%,0%);fill-opacity:1;" d="M 152.21875 123 C 148.84375 124.21875 147.375 127.78125 148.90625 131.15625 C 150.125 133.8125 153.21875 135.0625 156.15625 134.03125 C 157.3125 133.65625 158.65625 132.375 159.25 131.09375 C 159.875 129.65625 159.84375 127.375 159.125 125.9375 C 157.84375 123.3125 154.875 122.0625 152.21875 123 Z M 154.96875 124.8125 C 156.65625 125.28125 157.78125 127.21875 157.53125 129.0625 C 157.125 132.21875 153.625 133.5625 151.53125 131.3125 C 150.8125 130.5625 150.5625 129.8125 150.5625 128.46875 C 150.5625 126.6875 151.375 125.4375 152.875 124.875 C 153.78125 124.5625 154 124.5625 154.96875 124.8125 Z M 154.96875 124.8125 "/>
<path style=" stroke:none;fill-rule:nonzero;fill:rgb(0%,0%,0%);fill-opacity:1;" d="M 164.34375 122.9375 C 163.25 123.34375 162.1875 124.53125 162 125.53125 C 161.90625 126.1875 161.96875 126.5625 162.28125 127.21875 C 162.78125 128.25 163.875 128.875 165.96875 129.40625 C 168.25 129.9375 168.96875 130.84375 167.875 131.9375 C 167.46875 132.34375 167.21875 132.40625 166.28125 132.40625 C 165.125 132.40625 163.71875 131.9375 163.09375 131.34375 C 162.8125 131.09375 162.6875 131.15625 162.03125 131.8125 L 161.28125 132.5625 L 162.1875 133.1875 C 163.4375 134.03125 164.5 134.375 166.03125 134.375 C 168.1875 134.375 169.5 133.71875 170.125 132.34375 C 171.1875 130.0625 170.03125 128.4375 166.6875 127.4375 C 164.1875 126.6875 163.53125 125.96875 164.5 125.03125 C 165.28125 124.34375 167.125 124.53125 168.40625 125.4375 L 169 125.84375 L 169.65625 125.15625 L 170.34375 124.4375 L 169.5 123.875 C 167.90625 122.78125 165.875 122.40625 164.34375 122.9375 Z M 164.34375 122.9375 "/>
<path style=" stroke:none;fill-rule:nonzero;fill:rgb(0%,0%,0%);fill-opacity:1;" d="M 29.3125 128.5 L 29.3125 134.1875 L 31.34375 134.1875 L 31.34375 130.1875 L 33.4375 130.1875 L 34.65625 132.15625 L 35.84375 134.15625 L 37.09375 134.1875 L 38.3125 134.1875 L 38.03125 133.71875 C 36.8125 131.84375 35.71875 130.0625 35.75 130.03125 C 37.90625 128.59375 38.5625 126.9375 37.71875 125.09375 C 36.90625 123.34375 36.125 123 32.28125 122.875 L 29.3125 122.8125 Z M 35.46875 125.4375 C 36.125 126.21875 36.0625 127.03125 35.375 127.75 C 34.78125 128.34375 34.65625 128.375 32.625 128.34375 L 31.34375 128.34375 L 31.28125 126.5625 L 31.21875 124.75 L 33.09375 124.84375 C 34.90625 124.90625 35.03125 124.9375 35.46875 125.4375 Z M 35.46875 125.4375 "/>
<path style=" stroke:none;fill-rule:nonzero;fill:rgb(0%,0%,0%);fill-opacity:1;" d="M 41.03125 128.5 L 41.03125 134.1875 L 43.15625 134.1875 L 43.15625 122.84375 L 41.03125 122.84375 Z M 41.03125 128.5 "/>
<path style=" stroke:none;fill-rule:nonzero;fill:rgb(0%,0%,0%);fill-opacity:1;" d="M 59.6875 127.5625 C 58.625 130.15625 57.625 132.71875 57.40625 133.25 L 57.03125 134.1875 L 58.21875 134.125 L 59.40625 134.09375 L 59.90625 132.84375 L 60.40625 131.625 L 64.96875 131.625 L 65.90625 134.1875 L 67.15625 134.1875 C 68.25 134.1875 68.375 134.125 68.21875 133.8125 C 68.09375 133.65625 67.09375 131.09375 65.9375 128.15625 L 63.84375 122.84375 L 61.59375 122.84375 Z M 63.5 127.6875 L 64.1875 129.59375 L 62.75 129.65625 C 61.9375 129.6875 61.25 129.65625 61.21875 129.625 C 61.125 129.5625 62.5625 125.78125 62.6875 125.78125 C 62.75 125.78125 63.09375 126.625 63.5 127.6875 Z M 63.5 127.6875 "/>
<path style=" stroke:none;fill-rule:nonzero;fill:rgb(0%,0%,0%);fill-opacity:1;" d="M 70.5 128.5 L 70.5 134.1875 L 72.5625 134.1875 L 72.5625 130.1875 L 74.5625 130.0625 L 75.8125 132.09375 L 77.0625 134.1875 L 78.28125 134.1875 C 79.21875 134.1875 79.46875 134.125 79.375 133.9375 C 79.28125 133.8125 78.6875 132.84375 78 131.8125 L 76.8125 129.96875 L 77.53125 129.5625 C 79.5 128.5 79.8125 125.6875 78.15625 124 C 77.25 123.09375 76.15625 122.84375 72.9375 122.84375 L 70.5 122.84375 Z M 76.1875 125.15625 C 77.375 125.75 77.46875 127.15625 76.375 127.9375 C 76 128.21875 75.46875 128.3125 74.21875 128.34375 L 72.5625 128.375 L 72.4375 124.8125 L 73.96875 124.8125 C 75.03125 124.8125 75.71875 124.90625 76.1875 125.15625 Z M 76.1875 125.15625 "/>
<path style=" stroke:none;fill-rule:nonzero;fill:rgb(0%,0%,0%);fill-opacity:1;" d="M 82.03125 128.5 L 82.03125 134.21875 L 85.03125 134.125 C 87.78125 134.09375 88.0625 134.03125 89 133.5625 C 92.3125 131.8125 93.0625 127.125 90.4375 124.59375 C 89.125 123.3125 88.15625 123.03125 84.8125 122.90625 L 82.03125 122.78125 Z M 87.5625 125.0625 C 88.53125 125.4375 89.03125 125.90625 89.46875 126.84375 C 90.09375 128.15625 89.90625 129.84375 89.03125 131.0625 C 88.46875 131.875 87.5 132.25 85.75 132.28125 L 84.1875 132.3125 L 84.1875 124.8125 L 85.5 124.8125 C 86.21875 124.8125 87.15625 124.9375 87.5625 125.0625 Z M 87.5625 125.0625 "/>
<path style=" stroke:none;fill-rule:nonzero;fill:rgb(0%,0%,0%);fill-opacity:1;" d="M 112.6875 128.5 L 112.6875 134.1875 L 114.875 134.1875 L 114.8125 130.375 C 114.78125 128.28125 114.78125 126.5625 114.78125 126.5625 C 114.8125 126.5625 115.3125 127.5 115.9375 128.65625 C 116.53125 129.8125 117.3125 131.21875 117.625 131.78125 L 118.21875 132.84375 L 119.9375 129.65625 L 121.6875 126.46875 L 121.6875 134.1875 L 123.71875 134.1875 L 123.6875 128.5 L 123.625 122.84375 L 121.5 122.84375 L 119.875 126 L 118.21875 129.125 L 116.59375 126 L 114.9375 122.84375 L 112.6875 122.84375 Z M 112.6875 128.5 "/>
<path style=" stroke:none;fill-rule:nonzero;fill:rgb(0%,0%,0%);fill-opacity:1;" d="M 128.3125 128.5 L 126.0625 134.1875 L 128.40625 134.1875 L 129.34375 131.625 L 133.9375 131.625 L 134.4375 132.84375 L 134.9375 134.09375 L 136.125 134.125 C 137.21875 134.1875 137.3125 134.1875 137.15625 133.84375 C 137.0625 133.65625 136.03125 131.09375 134.875 128.15625 L 132.78125 122.84375 L 130.5625 122.84375 Z M 132.46875 127.6875 C 132.875 128.71875 133.15625 129.59375 133.125 129.625 C 133.09375 129.65625 132.40625 129.6875 131.59375 129.65625 L 130.15625 129.59375 L 130.84375 127.6875 C 131.21875 126.625 131.59375 125.78125 131.65625 125.78125 C 131.6875 125.78125 132.0625 126.625 132.46875 127.6875 Z M 132.46875 127.6875 "/>
<path style=" stroke:none;fill-rule:nonzero;fill:rgb(0%,0%,0%);fill-opacity:1;" d="M 137.34375 123.78125 L 137.40625 124.71875 L 141.21875 124.90625 L 141.21875 134.1875 L 143.375 134.1875 L 143.375 124.8125 L 147.28125 124.8125 L 147.28125 122.84375 L 137.28125 122.84375 Z M 137.34375 123.78125 "/>
</g>
</svg>
