<?xml version="1.0" encoding="UTF-8"?>
<svg xmlns="http://www.w3.org/2000/svg" xmlns:xlink="http://www.w3.org/1999/xlink" width="25px" height="25px" viewBox="0 0 25 25" version="1.1">
<g id="surface1">
<path style=" stroke:none;fill-rule:nonzero;fill:rgb(0%,0%,0%);fill-opacity:1;" d="M 16.207031 6.914062 C 16.164062 7.015625 15.921875 8.207031 15.933594 8.25 C 15.960938 8.308594 15.980469 8.316406 16.117188 8.300781 C 16.226562 8.289062 16.246094 8.277344 16.265625 8.226562 C 16.273438 8.191406 16.34375 7.886719 16.417969 7.546875 C 16.515625 7.089844 16.542969 6.917969 16.523438 6.890625 C 16.507812 6.871094 16.445312 6.859375 16.367188 6.859375 C 16.253906 6.859375 16.230469 6.867188 16.207031 6.914062 Z M 16.207031 6.914062 "/>
<path style=" stroke:none;fill-rule:nonzero;fill:rgb(0%,0%,0%);fill-opacity:1;" d="M 16.8125 7.101562 L 16.714844 7.199219 L 16.878906 7.378906 L 17.039062 7.554688 L 16.878906 7.71875 L 16.714844 7.886719 L 16.820312 7.992188 L 16.925781 8.101562 L 17.203125 7.84375 L 17.476562 7.585938 L 17.207031 7.296875 C 17.054688 7.136719 16.925781 7.007812 16.917969 7.007812 C 16.910156 7.007812 16.863281 7.050781 16.8125 7.101562 Z M 16.8125 7.101562 "/>
<path style=" stroke:none;fill-rule:nonzero;fill:rgb(0%,0%,0%);fill-opacity:1;" d="M 15.308594 7.3125 C 15.167969 7.464844 15.054688 7.601562 15.058594 7.609375 C 15.0625 7.621094 15.179688 7.742188 15.3125 7.878906 L 15.558594 8.132812 L 15.667969 8.027344 L 15.773438 7.917969 L 15.625 7.757812 L 15.472656 7.59375 L 15.597656 7.449219 C 15.667969 7.371094 15.738281 7.292969 15.757812 7.273438 C 15.792969 7.246094 15.785156 7.230469 15.695312 7.136719 C 15.636719 7.078125 15.582031 7.03125 15.578125 7.03125 C 15.570312 7.03125 15.449219 7.15625 15.308594 7.3125 Z M 15.308594 7.3125 "/>
<path style=" stroke:none;fill-rule:nonzero;fill:rgb(0%,0%,0%);fill-opacity:1;" d="M 5.816406 11.097656 L 5.824219 14.089844 L 7.128906 14.097656 L 7.128906 12.011719 L 8.097656 12.011719 L 8.488281 12.652344 C 8.707031 13.003906 8.992188 13.472656 9.125 13.695312 L 9.371094 14.097656 L 10.082031 14.105469 C 10.472656 14.105469 10.792969 14.105469 10.792969 14.097656 C 10.792969 14.089844 10.238281 13.210938 9.679688 12.328125 C 9.570312 12.160156 9.457031 11.984375 9.429688 11.9375 L 9.375 11.847656 L 9.527344 11.792969 C 10.054688 11.597656 10.441406 11.128906 10.546875 10.546875 C 10.585938 10.335938 10.578125 9.808594 10.539062 9.601562 C 10.386719 8.894531 9.878906 8.394531 9.09375 8.1875 L 8.851562 8.121094 L 7.328125 8.109375 L 5.8125 8.101562 Z M 8.816406 9.351562 C 9.019531 9.410156 9.195312 9.558594 9.28125 9.746094 C 9.367188 9.9375 9.363281 10.261719 9.273438 10.453125 C 9.195312 10.625 9.0625 10.757812 8.890625 10.835938 L 8.753906 10.902344 L 7.941406 10.90625 L 7.128906 10.914062 L 7.128906 9.300781 L 7.601562 9.296875 C 8.351562 9.285156 8.636719 9.300781 8.816406 9.351562 Z M 8.816406 9.351562 "/>
<path style=" stroke:none;fill-rule:nonzero;fill:rgb(0%,0%,0%);fill-opacity:1;" d="M 11.8125 8.125 L 11.207031 8.128906 L 11.207031 14.109375 L 11.800781 14.105469 L 12.390625 14.097656 L 12.390625 12.105469 C 12.390625 11.007812 12.398438 10.117188 12.40625 10.125 C 12.417969 10.140625 13.390625 11.703125 13.730469 12.261719 C 13.785156 12.351562 13.839844 12.425781 13.847656 12.425781 C 13.859375 12.425781 13.871094 12.40625 13.878906 12.378906 C 13.886719 12.351562 13.902344 12.328125 13.910156 12.328125 C 13.921875 12.328125 13.925781 12.707031 13.921875 13.171875 L 13.914062 14.011719 L 14.039062 14.136719 L 16.253906 14.128906 C 18.714844 14.125 18.578125 14.132812 18.613281 13.960938 C 18.640625 13.832031 18.628906 8.726562 18.605469 8.65625 C 18.558594 8.53125 18.585938 8.53125 16.222656 8.542969 C 14.078125 8.558594 14.015625 8.558594 13.964844 8.605469 C 13.914062 8.652344 13.914062 8.65625 13.921875 9.597656 C 13.925781 10.300781 13.921875 10.535156 13.902344 10.515625 C 13.886719 10.496094 13.667969 10.152344 13.421875 9.742188 C 12.691406 8.539062 12.449219 8.140625 12.433594 8.128906 C 12.421875 8.121094 12.144531 8.121094 11.8125 8.125 Z M 18.285156 11.339844 L 18.285156 13.792969 L 14.257812 13.792969 L 14.257812 11.800781 L 14.484375 11.449219 L 14.257812 11.089844 L 14.257812 8.886719 L 18.285156 8.886719 Z M 18.285156 11.339844 "/>
<path style=" stroke:none;fill-rule:nonzero;fill:rgb(0%,0%,0%);fill-opacity:1;" d="M 14.679688 9.707031 L 14.683594 9.867188 L 15.199219 9.871094 L 15.710938 9.875 L 15.710938 10.671875 L 15.199219 10.675781 L 14.683594 10.679688 L 14.679688 10.832031 L 14.671875 10.984375 L 15.722656 10.984375 L 15.722656 11.828125 L 14.6875 11.828125 L 14.6875 11.988281 L 14.683594 12.144531 L 15.207031 12.152344 L 15.722656 12.15625 L 15.722656 12.9375 L 14.671875 12.9375 L 14.679688 13.097656 C 14.683594 13.1875 14.691406 13.257812 14.703125 13.257812 C 14.714844 13.257812 15.425781 13.257812 16.285156 13.257812 L 17.847656 13.257812 L 17.847656 12.9375 L 17.1875 12.9375 L 17.1875 12.132812 L 17.847656 12.132812 L 17.847656 11.816406 L 17.1875 11.816406 L 17.191406 11.40625 L 17.199219 11 L 17.847656 11 L 17.847656 10.691406 L 17.1875 10.691406 L 17.1875 9.863281 L 17.847656 9.863281 L 17.847656 9.546875 L 14.671875 9.546875 Z M 16.894531 10.277344 L 16.894531 10.691406 L 16.015625 10.691406 L 16.015625 9.863281 L 16.894531 9.863281 Z M 16.890625 11.421875 L 16.894531 11.839844 L 16.46875 11.835938 L 16.042969 11.828125 L 16.03125 11.421875 C 16.027344 11.195312 16.027344 11.007812 16.035156 11 C 16.042969 10.992188 16.238281 10.988281 16.464844 10.992188 L 16.882812 11 Z M 16.875 12.535156 L 16.871094 12.925781 L 16.441406 12.933594 L 16.015625 12.9375 L 16.015625 12.132812 L 16.449219 12.136719 L 16.878906 12.144531 Z M 16.875 12.535156 "/>
<path style=" stroke:none;fill-rule:nonzero;fill:rgb(0%,0%,0%);fill-opacity:1;" d="M 6.222656 15.367188 C 6.03125 15.417969 5.875 15.558594 5.78125 15.757812 C 5.707031 15.925781 5.703125 16.199219 5.777344 16.359375 C 5.929688 16.683594 6.253906 16.847656 6.59375 16.761719 C 6.734375 16.726562 6.957031 16.597656 6.957031 16.550781 C 6.957031 16.539062 6.917969 16.5 6.867188 16.457031 C 6.777344 16.382812 6.777344 16.382812 6.726562 16.429688 C 6.65625 16.492188 6.511719 16.550781 6.417969 16.550781 C 6.148438 16.550781 5.925781 16.210938 6.003906 15.921875 C 6.042969 15.785156 6.183594 15.632812 6.300781 15.601562 C 6.449219 15.5625 6.648438 15.621094 6.722656 15.726562 C 6.757812 15.773438 6.757812 15.773438 6.871094 15.691406 L 6.988281 15.613281 L 6.878906 15.511719 C 6.800781 15.445312 6.722656 15.398438 6.625 15.375 C 6.457031 15.324219 6.378906 15.324219 6.222656 15.367188 Z M 6.222656 15.367188 "/>
<path style=" stroke:none;fill-rule:nonzero;fill:rgb(0%,0%,0%);fill-opacity:1;" d="M 12.28125 15.355469 C 12.140625 15.398438 12.011719 15.484375 11.921875 15.585938 C 11.625 15.921875 11.710938 16.472656 12.09375 16.707031 C 12.191406 16.769531 12.242188 16.78125 12.414062 16.792969 C 12.601562 16.800781 12.632812 16.796875 12.753906 16.738281 C 13.019531 16.609375 13.167969 16.351562 13.164062 16.046875 C 13.160156 15.769531 12.992188 15.503906 12.75 15.398438 C 12.628906 15.347656 12.378906 15.320312 12.28125 15.355469 Z M 12.699219 15.660156 C 13.015625 15.867188 12.921875 16.472656 12.558594 16.542969 C 12.257812 16.597656 12.011719 16.390625 12.011719 16.078125 C 12.011719 15.691406 12.394531 15.457031 12.699219 15.660156 Z M 12.699219 15.660156 "/>
<path style=" stroke:none;fill-rule:nonzero;fill:rgb(0%,0%,0%);fill-opacity:1;" d="M 19.027344 15.375 C 18.605469 15.527344 18.421875 15.972656 18.613281 16.394531 C 18.765625 16.726562 19.152344 16.882812 19.519531 16.753906 C 19.664062 16.707031 19.832031 16.546875 19.90625 16.386719 C 19.984375 16.207031 19.980469 15.921875 19.890625 15.742188 C 19.730469 15.414062 19.359375 15.257812 19.027344 15.375 Z M 19.371094 15.601562 C 19.582031 15.660156 19.722656 15.902344 19.691406 16.132812 C 19.640625 16.527344 19.203125 16.695312 18.941406 16.414062 C 18.851562 16.320312 18.820312 16.226562 18.820312 16.058594 C 18.820312 15.835938 18.921875 15.679688 19.109375 15.609375 C 19.222656 15.570312 19.25 15.570312 19.371094 15.601562 Z M 19.371094 15.601562 "/>
<path style=" stroke:none;fill-rule:nonzero;fill:rgb(0%,0%,0%);fill-opacity:1;" d="M 20.542969 15.367188 C 20.40625 15.417969 20.273438 15.566406 20.25 15.691406 C 20.238281 15.773438 20.246094 15.820312 20.285156 15.902344 C 20.347656 16.03125 20.484375 16.109375 20.746094 16.175781 C 21.03125 16.242188 21.121094 16.355469 20.984375 16.492188 C 20.933594 16.542969 20.902344 16.550781 20.785156 16.550781 C 20.640625 16.550781 20.464844 16.492188 20.386719 16.417969 C 20.351562 16.386719 20.335938 16.394531 20.253906 16.476562 L 20.160156 16.570312 L 20.273438 16.648438 C 20.429688 16.753906 20.5625 16.796875 20.753906 16.796875 C 21.023438 16.796875 21.1875 16.714844 21.265625 16.542969 C 21.398438 16.257812 21.253906 16.054688 20.835938 15.929688 C 20.523438 15.835938 20.441406 15.746094 20.5625 15.628906 C 20.660156 15.542969 20.890625 15.566406 21.050781 15.679688 L 21.125 15.730469 L 21.207031 15.644531 L 21.292969 15.554688 L 21.1875 15.484375 C 20.988281 15.347656 20.734375 15.300781 20.542969 15.367188 Z M 20.542969 15.367188 "/>
<path style=" stroke:none;fill-rule:nonzero;fill:rgb(0%,0%,0%);fill-opacity:1;" d="M 3.664062 16.0625 L 3.664062 16.773438 L 3.917969 16.773438 L 3.917969 16.273438 L 4.179688 16.273438 L 4.332031 16.519531 L 4.480469 16.769531 L 4.636719 16.773438 L 4.789062 16.773438 L 4.753906 16.714844 C 4.601562 16.480469 4.464844 16.257812 4.46875 16.253906 C 4.738281 16.074219 4.820312 15.867188 4.714844 15.636719 C 4.613281 15.417969 4.515625 15.375 4.035156 15.359375 L 3.664062 15.351562 Z M 4.433594 15.679688 C 4.515625 15.777344 4.507812 15.878906 4.421875 15.96875 C 4.347656 16.042969 4.332031 16.046875 4.078125 16.042969 L 3.917969 16.042969 L 3.910156 15.820312 L 3.902344 15.59375 L 4.136719 15.605469 C 4.363281 15.613281 4.378906 15.617188 4.433594 15.679688 Z M 4.433594 15.679688 "/>
<path style=" stroke:none;fill-rule:nonzero;fill:rgb(0%,0%,0%);fill-opacity:1;" d="M 5.128906 16.0625 L 5.128906 16.773438 L 5.394531 16.773438 L 5.394531 15.355469 L 5.128906 15.355469 Z M 5.128906 16.0625 "/>
<path style=" stroke:none;fill-rule:nonzero;fill:rgb(0%,0%,0%);fill-opacity:1;" d="M 7.460938 15.945312 C 7.328125 16.269531 7.203125 16.589844 7.175781 16.65625 L 7.128906 16.773438 L 7.277344 16.765625 L 7.425781 16.761719 L 7.488281 16.605469 L 7.550781 16.453125 L 8.121094 16.453125 L 8.238281 16.773438 L 8.394531 16.773438 C 8.53125 16.773438 8.546875 16.765625 8.527344 16.726562 C 8.511719 16.707031 8.386719 16.386719 8.242188 16.019531 L 7.980469 15.355469 L 7.699219 15.355469 Z M 7.9375 15.960938 L 8.023438 16.199219 L 7.84375 16.207031 C 7.742188 16.210938 7.65625 16.207031 7.652344 16.203125 C 7.640625 16.195312 7.820312 15.722656 7.835938 15.722656 C 7.84375 15.722656 7.886719 15.828125 7.9375 15.960938 Z M 7.9375 15.960938 "/>
<path style=" stroke:none;fill-rule:nonzero;fill:rgb(0%,0%,0%);fill-opacity:1;" d="M 8.8125 16.0625 L 8.8125 16.773438 L 9.070312 16.773438 L 9.070312 16.273438 L 9.320312 16.257812 L 9.476562 16.511719 L 9.632812 16.773438 L 9.785156 16.773438 C 9.902344 16.773438 9.933594 16.765625 9.921875 16.742188 C 9.910156 16.726562 9.835938 16.605469 9.75 16.476562 L 9.601562 16.246094 L 9.691406 16.195312 C 9.9375 16.0625 9.976562 15.710938 9.769531 15.5 C 9.65625 15.386719 9.519531 15.355469 9.117188 15.355469 L 8.8125 15.355469 Z M 9.523438 15.644531 C 9.671875 15.71875 9.683594 15.894531 9.546875 15.992188 C 9.5 16.027344 9.433594 16.039062 9.277344 16.042969 L 9.070312 16.046875 L 9.054688 15.601562 L 9.246094 15.601562 C 9.378906 15.601562 9.464844 15.613281 9.523438 15.644531 Z M 9.523438 15.644531 "/>
<path style=" stroke:none;fill-rule:nonzero;fill:rgb(0%,0%,0%);fill-opacity:1;" d="M 10.253906 16.0625 L 10.253906 16.777344 L 10.628906 16.765625 C 10.972656 16.761719 11.007812 16.753906 11.125 16.695312 C 11.539062 16.476562 11.632812 15.890625 11.304688 15.574219 C 11.140625 15.414062 11.019531 15.378906 10.601562 15.363281 L 10.253906 15.347656 Z M 10.945312 15.632812 C 11.066406 15.679688 11.128906 15.738281 11.183594 15.855469 C 11.261719 16.019531 11.238281 16.230469 11.128906 16.382812 C 11.058594 16.484375 10.9375 16.53125 10.71875 16.535156 L 10.523438 16.539062 L 10.523438 15.601562 L 10.6875 15.601562 C 10.777344 15.601562 10.894531 15.617188 10.945312 15.632812 Z M 10.945312 15.632812 "/>
<path style=" stroke:none;fill-rule:nonzero;fill:rgb(0%,0%,0%);fill-opacity:1;" d="M 14.085938 16.0625 L 14.085938 16.773438 L 14.359375 16.773438 L 14.351562 16.296875 C 14.347656 16.035156 14.347656 15.820312 14.347656 15.820312 C 14.351562 15.820312 14.414062 15.9375 14.492188 16.082031 C 14.566406 16.226562 14.664062 16.402344 14.703125 16.472656 L 14.777344 16.605469 L 14.992188 16.207031 L 15.210938 15.808594 L 15.210938 16.773438 L 15.464844 16.773438 L 15.460938 16.0625 L 15.453125 15.355469 L 15.1875 15.355469 L 14.984375 15.75 L 14.777344 16.140625 L 14.574219 15.75 L 14.367188 15.355469 L 14.085938 15.355469 Z M 14.085938 16.0625 "/>
<path style=" stroke:none;fill-rule:nonzero;fill:rgb(0%,0%,0%);fill-opacity:1;" d="M 16.039062 16.0625 L 15.757812 16.773438 L 16.050781 16.773438 L 16.167969 16.453125 L 16.742188 16.453125 L 16.804688 16.605469 L 16.867188 16.761719 L 17.015625 16.765625 C 17.152344 16.773438 17.164062 16.773438 17.144531 16.730469 C 17.132812 16.707031 17.003906 16.386719 16.859375 16.019531 L 16.597656 15.355469 L 16.320312 15.355469 Z M 16.558594 15.960938 C 16.609375 16.089844 16.644531 16.199219 16.640625 16.203125 C 16.636719 16.207031 16.550781 16.210938 16.449219 16.207031 L 16.269531 16.199219 L 16.355469 15.960938 C 16.402344 15.828125 16.449219 15.722656 16.457031 15.722656 C 16.460938 15.722656 16.507812 15.828125 16.558594 15.960938 Z M 16.558594 15.960938 "/>
<path style=" stroke:none;fill-rule:nonzero;fill:rgb(0%,0%,0%);fill-opacity:1;" d="M 17.167969 15.472656 L 17.175781 15.589844 L 17.652344 15.613281 L 17.652344 16.773438 L 17.921875 16.773438 L 17.921875 15.601562 L 18.410156 15.601562 L 18.410156 15.355469 L 17.160156 15.355469 Z M 17.167969 15.472656 "/>
</g>
</svg>
